<svg width="130" height="28" viewBox="0 0 130 28" fill="none" xmlns="http://www.w3.org/2000/svg">
<path d="M2.91053 11.465C2.91053 12.1014 3.0212 12.6436 3.237 13.0918C3.4528 13.54 3.75713 13.9108 4.14446 14.2096C4.5318 14.4862 4.97446 14.6965 5.46693 14.8348C5.97599 14.9566 6.52933 15.023 7.11586 15.023C7.75219 15.023 8.29446 14.9511 8.74266 14.8127C9.19086 14.6578 9.55606 14.4641 9.83272 14.2317C10.1094 13.9993 10.3141 13.7337 10.4359 13.4404C10.5576 13.1306 10.624 12.8207 10.624 12.5108C10.624 11.8745 10.4746 11.4097 10.1813 11.1164C9.90466 10.8066 9.59479 10.5908 9.25172 10.4635C8.66519 10.2477 7.97353 10.043 7.18226 9.86039C6.40759 9.66119 5.4448 9.40111 4.2994 9.09125C3.5856 8.90312 2.988 8.66519 2.51213 8.37192C2.04733 8.06206 1.6766 7.71897 1.3944 7.34824C1.1122 6.9775 0.912999 6.57911 0.791266 6.16411C0.680599 5.74358 0.630799 5.31752 0.630799 4.88592C0.630799 4.05039 0.802333 3.33105 1.13987 2.72239C1.494 2.10265 1.9588 1.59359 2.53426 1.18966C3.10973 0.785729 3.75713 0.492459 4.48753 0.304326C5.21793 0.105126 5.95386 0 6.69533 0C7.56406 0 8.37746 0.116203 9.13552 0.348602C9.91019 0.564402 10.5853 0.8964 11.1552 1.35013C11.7417 1.79833 12.2065 2.35719 12.5496 3.02119C12.8927 3.67412 13.0587 4.43219 13.0587 5.30092H10.1537C10.0762 4.23299 9.71099 3.48045 9.06359 3.04885C8.41066 2.60065 7.58619 2.37378 6.57913 2.37378C6.23606 2.37378 5.88746 2.41253 5.53333 2.49C5.17919 2.55086 4.85273 2.66707 4.55946 2.8386C4.2662 2.99353 4.0172 3.20933 3.818 3.49153C3.62986 3.76819 3.54133 4.11678 3.54133 4.53732C3.54133 5.12385 3.7184 5.58866 4.07806 5.93172C4.4488 6.25819 4.9302 6.50719 5.51673 6.67319C5.57759 6.68979 5.82106 6.75619 6.23606 6.88346C6.66766 6.99412 7.14906 7.11585 7.67473 7.25418C8.20039 7.39251 8.71499 7.53085 9.20746 7.67472C9.71652 7.79645 10.0817 7.89052 10.2975 7.95138C10.8398 8.12292 11.3101 8.35532 11.7141 8.64859C12.118 8.94186 12.45 9.28491 12.7156 9.67224C12.9923 10.043 13.197 10.4469 13.3187 10.8785C13.4571 11.3101 13.529 11.7473 13.529 12.1789C13.529 13.1085 13.3353 13.9052 12.948 14.5748C12.5773 15.2277 12.0793 15.7589 11.4595 16.1794C10.8398 16.6 10.1371 16.8988 9.34579 17.0869C8.55452 17.2861 7.75219 17.3912 6.92773 17.3912C5.98153 17.3912 5.09066 17.275 4.25513 17.0426C3.4196 16.8102 2.6892 16.4561 2.06946 15.9747C1.44973 15.4933 0.951732 14.8846 0.580999 14.1376C0.210266 13.3796 0.0166 12.4887 0 11.465H2.905H2.91053Z" fill="#323232"/>
<path d="M16.0299 0.403931H20.119L24.6951 13.3962H24.7393L29.1992 0.403931H33.244V16.9984H30.4774V4.19426H30.4331L25.8294 16.9984H23.4335L18.8297 4.19426H18.7855V16.9984H16.0188V0.403931H16.0299Z" fill="#323232"/>
<path d="M36.6805 0.403931H40.7696L45.3457 13.3962H45.39L49.8498 0.403931H53.8947V16.9984H51.128V4.19426H51.0838L46.48 16.9984H44.0841L39.4804 4.19426H39.4361V16.9984H36.6694V0.403931H36.6805Z" fill="#323232"/>
<path d="M71.7286 9.93235C71.6954 9.51182 71.6068 9.11342 71.4519 8.72609C71.3136 8.33875 71.1088 8.00672 70.8488 7.72452C70.5998 7.43126 70.2899 7.19889 69.9192 7.02735C69.565 6.83922 69.1611 6.75069 68.7129 6.75069C68.2647 6.75069 67.822 6.83366 67.4347 7.0052C67.064 7.16013 66.7375 7.38701 66.4608 7.68028C66.1952 7.95695 65.9794 8.29448 65.8079 8.68181C65.653 9.06914 65.57 9.48965 65.5534 9.93785H71.7341L71.7286 9.93235ZM65.5423 11.6753C65.5423 12.1401 65.6032 12.5883 65.7304 13.0255C65.8688 13.4571 66.0735 13.8389 66.3336 14.1653C66.5992 14.4918 66.9312 14.7519 67.3351 14.9566C67.739 15.1447 68.2204 15.2332 68.7738 15.2332C69.5484 15.2332 70.1682 15.0728 70.633 14.7463C71.1144 14.4032 71.4685 13.8997 71.7009 13.2357H74.213C74.0747 13.8887 73.8312 14.4697 73.4937 14.9787C73.1562 15.4878 72.7412 15.9249 72.2598 16.2791C71.7784 16.6221 71.2361 16.8767 70.633 17.0482C70.0464 17.2363 69.4267 17.3249 68.7738 17.3249C67.8276 17.3249 66.992 17.1699 66.2616 16.86C65.5312 16.5502 64.9115 16.1186 64.4024 15.5597C63.9044 15.0009 63.5282 14.3369 63.2626 13.5622C63.0136 12.7875 62.8918 11.9354 62.8918 11.0058C62.8918 10.1537 63.0246 9.34582 63.2847 8.58775C63.5614 7.81309 63.9487 7.13801 64.4467 6.56808C64.9558 5.98154 65.57 5.51673 66.2838 5.17367C66.9976 4.8306 67.7999 4.66461 68.7018 4.66461C69.648 4.66461 70.4891 4.86381 71.2361 5.26774C71.9942 5.65507 72.625 6.17522 73.1174 6.82262C73.6099 7.47002 73.9696 8.22252 74.1854 9.07466C74.4178 9.91019 74.4786 10.7789 74.3735 11.6753H65.5423Z" fill="#323232"/>
<path d="M79.6191 10.6738L75.4581 4.97998H78.6674L81.1795 8.67624L83.8078 4.97998H86.8733L82.7842 10.5354L87.3879 16.9983H84.2062L81.1629 12.5606L78.2136 16.9983H75.0984L79.6302 10.6793L79.6191 10.6738Z" fill="#323232"/>
<path d="M88.9428 4.97997H91.4549V6.60677H91.4992C91.8699 5.90957 92.3901 5.41157 93.0541 5.1183C93.7181 4.80843 94.4429 4.6535 95.2176 4.6535C96.1638 4.6535 96.9827 4.82503 97.6799 5.16256C98.3937 5.48903 98.9802 5.94276 99.445 6.53483C99.9098 7.1103 100.258 7.77981 100.491 8.55447C100.723 9.32914 100.839 10.1592 100.839 11.039C100.839 11.8468 100.729 12.627 100.513 13.3851C100.314 14.1432 99.9928 14.8182 99.5612 15.4047C99.1407 15.9802 98.6095 16.445 97.9566 16.7991C97.3036 17.1422 96.54 17.3082 95.6547 17.3082C95.2674 17.3082 94.88 17.2695 94.4927 17.192C94.1054 17.1312 93.7347 17.0205 93.375 16.8655C93.0209 16.7106 92.6833 16.5169 92.3734 16.2845C92.0802 16.0355 91.8312 15.7478 91.632 15.4269H91.5877V21.425H88.9373V4.96889L88.9428 4.97997ZM98.1945 11.0002C98.1945 10.458 98.1226 9.9323 97.9843 9.41771C97.8459 8.90311 97.6356 8.45491 97.359 8.06757C97.0823 7.66364 96.7337 7.34822 96.3132 7.11582C95.8927 6.86682 95.4168 6.7451 94.8745 6.7451C93.7568 6.7451 92.9157 7.13242 92.3402 7.90708C91.7814 8.68175 91.5047 9.71096 91.5047 11.0002C91.5047 11.6034 91.5767 12.1678 91.715 12.699C91.8699 13.208 92.0968 13.6507 92.3901 14.0214C92.6833 14.3921 93.0319 14.6854 93.4359 14.9068C93.8564 15.1226 94.3322 15.2332 94.8745 15.2332C95.4776 15.2332 95.9922 15.1115 96.4072 14.8625C96.8222 14.6135 97.1653 14.2981 97.4309 13.9108C97.7076 13.5068 97.9012 13.0586 98.0119 12.5606C98.1336 12.0516 98.2001 11.5314 98.2001 11.0058L98.1945 11.0002Z" fill="#323232"/>
<path d="M111.33 9.93235C111.297 9.51182 111.209 9.11342 111.054 8.72609C110.915 8.33875 110.711 8.00672 110.451 7.72452C110.202 7.43126 109.892 7.19889 109.521 7.02735C109.167 6.83922 108.763 6.75069 108.315 6.75069C107.867 6.75069 107.424 6.83366 107.037 7.0052C106.666 7.16013 106.339 7.38701 106.063 7.68028C105.797 7.95695 105.581 8.29448 105.41 8.68181C105.255 9.06914 105.172 9.48965 105.155 9.93785H111.336L111.33 9.93235ZM105.15 11.6753C105.15 12.1401 105.211 12.5883 105.338 13.0255C105.476 13.4571 105.681 13.8389 105.941 14.1653C106.207 14.4918 106.539 14.7519 106.943 14.9566C107.346 15.1447 107.828 15.2332 108.381 15.2332C109.156 15.2332 109.776 15.0728 110.24 14.7463C110.722 14.4032 111.076 13.8997 111.308 13.2357H113.82C113.682 13.8887 113.439 14.4697 113.101 14.9787C112.764 15.4878 112.349 15.9249 111.867 16.2791C111.386 16.6221 110.844 16.8767 110.24 17.0482C109.654 17.2363 109.034 17.3249 108.381 17.3249C107.435 17.3249 106.599 17.1699 105.869 16.86C105.139 16.5502 104.519 16.1186 104.01 15.5597C103.512 15.0009 103.136 14.3369 102.87 13.5622C102.621 12.7875 102.499 11.9354 102.499 11.0058C102.499 10.1537 102.632 9.34582 102.892 8.58775C103.169 7.81309 103.556 7.13801 104.054 6.56808C104.563 5.98154 105.177 5.51673 105.891 5.17367C106.605 4.8306 107.407 4.66461 108.309 4.66461C109.255 4.66461 110.097 4.86381 110.844 5.26774C111.602 5.65507 112.232 6.17522 112.725 6.82262C113.223 7.47555 113.577 8.22252 113.793 9.07466C114.025 9.91019 114.086 10.7789 113.981 11.6753H105.15Z" fill="#323232"/>
<path d="M115.995 4.98H118.48V7.304H118.524C118.601 6.97754 118.751 6.66212 118.967 6.35225C119.199 6.04239 119.47 5.76573 119.78 5.51673C120.106 5.25113 120.461 5.0464 120.848 4.89146C121.235 4.73653 121.628 4.65906 122.032 4.65906C122.342 4.65906 122.552 4.6646 122.657 4.6812C122.779 4.6978 122.906 4.71439 123.028 4.72545V7.28185C122.84 7.24865 122.646 7.22651 122.447 7.20991C122.259 7.17671 122.076 7.16567 121.888 7.16567C121.44 7.16567 121.014 7.25974 120.61 7.44234C120.223 7.61387 119.88 7.87393 119.586 8.2336C119.293 8.57666 119.061 9.00273 118.889 9.5118C118.718 10.0209 118.635 10.6129 118.635 11.2769V16.9928H115.984V4.98H115.995Z" fill="#323232"/>
<path d="M122.956 4.98001H124.954V1.37781H127.604V4.98001H130V6.95541H127.604V13.3685C127.604 13.6452 127.61 13.8886 127.626 14.0878C127.659 14.287 127.709 14.4586 127.787 14.5969C127.881 14.7353 128.014 14.8459 128.18 14.9234C128.351 14.9842 128.583 15.0175 128.877 15.0175H129.436C129.624 15.0009 129.806 14.9732 129.994 14.9234V16.9707C129.701 17.0039 129.413 17.0316 129.137 17.0648C128.86 17.098 128.572 17.109 128.279 17.109C127.582 17.109 127.018 17.0482 126.58 16.9209C126.16 16.7826 125.828 16.5889 125.579 16.3399C125.346 16.0743 125.186 15.7534 125.092 15.3661C125.014 14.9787 124.97 14.5361 124.954 14.0436V6.95541H122.956V4.98001Z" fill="#323232"/>
<path d="M2.37388 27.1188C3.68184 27.1188 4.74214 26.0585 4.74214 24.7506C4.74214 23.4426 3.68184 22.3823 2.37388 22.3823C1.06592 22.3823 0.00561523 23.4426 0.00561523 24.7506C0.00561523 26.0585 1.06592 27.1188 2.37388 27.1188Z" fill="#6F6FF9"/>
<path d="M11.6366 27.1188C12.9445 27.1188 14.0048 26.0585 14.0048 24.7506C14.0048 23.4426 12.9445 22.3823 11.6366 22.3823C10.3286 22.3823 9.26831 23.4426 9.26831 24.7506C9.26831 26.0585 10.3286 27.1188 11.6366 27.1188Z" fill="#FF75C7"/>
<path d="M20.8939 27.1188C22.2019 27.1188 23.2622 26.0585 23.2622 24.7506C23.2622 23.4426 22.2019 22.3823 20.8939 22.3823C19.5859 22.3823 18.5256 23.4426 18.5256 24.7506C18.5256 26.0585 19.5859 27.1188 20.8939 27.1188Z" fill="#FF9019"/>
</svg>
