<svg width="140" height="30" viewBox="0 0 140 30" fill="none" xmlns="http://www.w3.org/2000/svg">
<path d="M0 0.307017H3.17854L6.73634 10.4025H6.77246L10.24 0.307017H13.3824V13.2018H11.2333V3.25078H11.1971L7.62127 13.2018H5.76111L2.18525 3.25078H2.14913V13.2018H0V0.307017Z" fill="#323232"/>
<path d="M14.7671 3.86482H17.0246L19.4626 10.8359H19.4988L21.8646 3.86482H24.0137L20.3837 13.7075C20.2151 14.1289 20.0466 14.5322 19.878 14.9175C19.7215 15.3027 19.5228 15.6399 19.282 15.9288C19.0533 16.2298 18.7643 16.4646 18.4152 16.6332C18.066 16.8138 17.6205 16.9041 17.0787 16.9041C16.5971 16.9041 16.1216 16.8679 15.652 16.7957V15.0619C15.8206 15.086 15.9831 15.1101 16.1396 15.1342C16.2961 15.1703 16.4587 15.1884 16.6272 15.1884C16.868 15.1884 17.0667 15.1583 17.2232 15.0981C17.3797 15.0379 17.5061 14.9476 17.6025 14.8272C17.7108 14.7188 17.8011 14.5864 17.8734 14.4299C17.9456 14.2733 18.0118 14.0927 18.072 13.8881L18.3068 13.1657L14.7671 3.86482Z" fill="#323232"/>
<path d="M31.9578 8.90353C31.9578 9.39716 32.0421 9.81856 32.2107 10.1677C32.3792 10.5169 32.614 10.8058 32.915 11.0346C33.216 11.2513 33.5591 11.4139 33.9444 11.5222C34.3417 11.6185 34.7691 11.6667 35.2267 11.6667C35.7203 11.6667 36.1417 11.6125 36.4909 11.5042C36.84 11.3838 37.123 11.2333 37.3397 11.0527C37.5564 10.8721 37.7129 10.6674 37.8092 10.4386C37.9055 10.1978 37.9537 9.95702 37.9537 9.71622C37.9537 9.22258 37.8393 8.86139 37.6106 8.63263C37.3939 8.39183 37.1531 8.22327 36.8882 8.12695C36.4307 7.95839 35.8949 7.80187 35.2808 7.65739C34.6788 7.50087 33.9324 7.30222 33.0414 7.06142C32.4876 6.91694 32.024 6.73032 31.6508 6.50156C31.2896 6.26076 31.0006 5.99588 30.7839 5.70693C30.5672 5.41797 30.4107 5.11095 30.3144 4.78587C30.2301 4.46079 30.188 4.12969 30.188 3.79258C30.188 3.14242 30.3204 2.58256 30.5853 2.11301C30.8622 1.63141 31.2234 1.23409 31.6689 0.921054C32.1143 0.608016 32.62 0.379257 33.1859 0.234778C33.7518 0.0782592 34.3237 0 34.9016 0C35.5758 0 36.2079 0.0902994 36.7979 0.270898C37.3999 0.439457 37.9236 0.698315 38.3691 1.04747C38.8266 1.39663 39.1878 1.83007 39.4527 2.34779C39.7176 2.85346 39.85 3.44342 39.85 4.11765H37.5925C37.5323 3.2869 37.2494 2.70296 36.7437 2.36585C36.238 2.01669 35.5939 1.84211 34.8113 1.84211C34.5464 1.84211 34.2755 1.87221 33.9986 1.93241C33.7217 1.98057 33.4688 2.07087 33.2401 2.20331C33.0113 2.32371 32.8187 2.49226 32.6622 2.70898C32.5177 2.9257 32.4454 3.1966 32.4454 3.52168C32.4454 3.9792 32.5839 4.34039 32.8608 4.60527C33.1498 4.85811 33.523 5.05075 33.9805 5.18319C34.0287 5.19523 34.2153 5.24941 34.5404 5.34573C34.8775 5.43001 35.2507 5.52633 35.6601 5.63469C36.0695 5.74305 36.4668 5.8514 36.8521 5.95976C37.2494 6.05608 37.5323 6.12832 37.7009 6.17648C38.1223 6.30892 38.4895 6.48952 38.8025 6.71828C39.1156 6.94704 39.3744 7.21192 39.5791 7.51291C39.7958 7.80187 39.9523 8.11491 40.0487 8.45203C40.157 8.78915 40.2112 9.12626 40.2112 9.46338C40.2112 10.1858 40.0607 10.8058 39.7597 11.3236C39.4707 11.8292 39.0855 12.2446 38.6039 12.5697C38.1223 12.8948 37.5745 13.1295 36.9604 13.274C36.3464 13.4305 35.7203 13.5088 35.0822 13.5088C34.3477 13.5088 33.6555 13.4185 33.0053 13.2379C32.3551 13.0573 31.7893 12.7804 31.3077 12.4071C30.8261 12.0339 30.4408 11.5583 30.1518 10.9804C29.8629 10.3905 29.7124 9.69816 29.7003 8.90353H31.9578Z" fill="#323232"/>
<path d="M42.1515 0.307017H45.33L48.8878 10.4025H48.924L52.3915 0.307017H55.5339V13.2018H53.3848V3.25078H53.3486L49.7728 13.2018H47.9126L44.3368 3.25078H44.3006V13.2018H42.1515V0.307017Z" fill="#323232"/>
<path d="M58.2008 0.307017H61.3794L64.9372 10.4025H64.9733L68.4408 0.307017H71.5832V13.2018H69.4341V3.25078H69.3979L65.8221 13.2018H63.9619L60.3861 3.25078H60.3499V13.2018H58.2008V0.307017Z" fill="#323232"/>
<path d="M85.435 7.71157C85.4109 7.3865 85.3387 7.07346 85.2183 6.77246C85.1099 6.47146 84.9534 6.2126 84.7487 5.99588C84.5561 5.76713 84.3153 5.58653 84.0263 5.45409C83.7494 5.30961 83.4364 5.23737 83.0872 5.23737C82.726 5.23737 82.3949 5.30359 82.0939 5.43603C81.805 5.55643 81.5521 5.73101 81.3354 5.95976C81.1307 6.17648 80.9622 6.43534 80.8297 6.73634C80.7093 7.03734 80.6431 7.36242 80.6311 7.71157H85.435ZM80.6311 9.06607C80.6311 9.42726 80.6792 9.77642 80.7756 10.1135C80.8839 10.4507 81.0404 10.7456 81.2451 10.9985C81.4498 11.2513 81.7086 11.456 82.0217 11.6125C82.3347 11.757 82.708 11.8292 83.1414 11.8292C83.7434 11.8292 84.225 11.7028 84.5862 11.45C84.9594 11.1851 85.2363 10.7938 85.4169 10.2761H87.3674C87.259 10.7818 87.0724 11.2333 86.8075 11.6306C86.5427 12.0279 86.2236 12.365 85.8504 12.6419C85.4771 12.9068 85.0557 13.1055 84.5862 13.2379C84.1287 13.3824 83.6471 13.4546 83.1414 13.4546C82.407 13.4546 81.7568 13.3342 81.1909 13.0934C80.625 12.8526 80.1434 12.5155 79.7461 12.0821C79.3609 11.6486 79.0659 11.1309 78.8612 10.5289C78.6686 9.92692 78.5722 9.26472 78.5722 8.54233C78.5722 7.88013 78.6746 7.25406 78.8793 6.6641C79.096 6.0621 79.397 5.53837 79.7822 5.09289C80.1796 4.63537 80.6551 4.27417 81.209 4.0093C81.7628 3.74442 82.3889 3.61198 83.0872 3.61198C83.8216 3.61198 84.4778 3.7685 85.0557 4.08154C85.6457 4.38253 86.1333 4.78587 86.5186 5.29155C86.9039 5.79722 87.1808 6.38116 87.3493 7.04336C87.5299 7.69351 87.5781 8.36775 87.4938 9.06607H80.6311Z" fill="#323232"/>
<path d="M91.5693 8.28949L88.3366 3.86482H90.8288L92.7793 6.73634L94.8201 3.86482H97.204L94.0254 8.18113L97.6013 13.2018H95.1271L92.7612 9.75234L90.4676 13.2018H88.0476L91.5693 8.28949Z" fill="#323232"/>
<path d="M98.8133 3.86482H100.764V5.12901H100.8C101.089 4.58721 101.492 4.20193 102.01 3.97318C102.528 3.73238 103.087 3.61198 103.689 3.61198C104.424 3.61198 105.062 3.74442 105.604 4.0093C106.158 4.26213 106.615 4.61731 106.976 5.07483C107.338 5.52031 107.608 6.04404 107.789 6.64604C107.97 7.24804 108.06 7.89217 108.06 8.57845C108.06 9.20452 107.976 9.81254 107.807 10.4025C107.651 10.9925 107.404 11.5162 107.067 11.9737C106.742 12.4192 106.326 12.7804 105.821 13.0573C105.315 13.3222 104.719 13.4546 104.033 13.4546C103.732 13.4546 103.431 13.4245 103.13 13.3643C102.829 13.3162 102.54 13.2319 102.263 13.1115C101.986 12.9911 101.727 12.8406 101.486 12.66C101.257 12.4673 101.065 12.2446 100.908 11.9918H100.872V16.6512H98.8133V3.86482ZM106.001 8.54233C106.001 8.12093 105.947 7.71157 105.839 7.31426C105.73 6.91694 105.568 6.56778 105.351 6.26678C105.134 5.95374 104.863 5.70693 104.538 5.52633C104.213 5.33369 103.84 5.23737 103.419 5.23737C102.552 5.23737 101.896 5.53837 101.45 6.14036C101.017 6.74236 100.8 7.54301 100.8 8.54233C100.8 9.01189 100.854 9.45134 100.962 9.8607C101.083 10.258 101.257 10.6012 101.486 10.8901C101.715 11.1791 101.986 11.4078 102.299 11.5764C102.624 11.7449 102.997 11.8292 103.419 11.8292C103.888 11.8292 104.285 11.7329 104.611 11.5403C104.936 11.3476 105.2 11.1008 105.405 10.7998C105.622 10.4868 105.772 10.1376 105.857 9.75234C105.953 9.35502 106.001 8.95169 106.001 8.54233Z" fill="#323232"/>
<path d="M116.211 7.71157C116.187 7.3865 116.115 7.07346 115.994 6.77246C115.886 6.47146 115.729 6.2126 115.525 5.99588C115.332 5.76713 115.091 5.58653 114.802 5.45409C114.525 5.30961 114.212 5.23737 113.863 5.23737C113.502 5.23737 113.171 5.30359 112.87 5.43603C112.581 5.55643 112.328 5.73101 112.111 5.95976C111.907 6.17648 111.738 6.43534 111.606 6.73634C111.485 7.03734 111.419 7.36242 111.407 7.71157H116.211ZM111.407 9.06607C111.407 9.42726 111.455 9.77642 111.551 10.1135C111.66 10.4507 111.816 10.7456 112.021 10.9985C112.226 11.2513 112.485 11.456 112.798 11.6125C113.111 11.757 113.484 11.8292 113.917 11.8292C114.519 11.8292 115.001 11.7028 115.362 11.45C115.735 11.1851 116.012 10.7938 116.193 10.2761H118.143C118.035 10.7818 117.848 11.2333 117.583 11.6306C117.319 12.0279 116.999 12.365 116.626 12.6419C116.253 12.9068 115.832 13.1055 115.362 13.2379C114.905 13.3824 114.423 13.4546 113.917 13.4546C113.183 13.4546 112.533 13.3342 111.967 13.0934C111.401 12.8526 110.919 12.5155 110.522 12.0821C110.137 11.6486 109.842 11.1309 109.637 10.5289C109.444 9.92692 109.348 9.26472 109.348 8.54233C109.348 7.88013 109.45 7.25406 109.655 6.6641C109.872 6.0621 110.173 5.53837 110.558 5.09289C110.955 4.63537 111.431 4.27417 111.985 4.0093C112.539 3.74442 113.165 3.61198 113.863 3.61198C114.598 3.61198 115.254 3.7685 115.832 4.08154C116.422 4.38253 116.909 4.78587 117.294 5.29155C117.68 5.79722 117.957 6.38116 118.125 7.04336C118.306 7.69351 118.354 8.36775 118.27 9.06607H111.407Z" fill="#323232"/>
<path d="M119.835 3.86482H121.767V5.67081H121.803C121.864 5.41797 121.978 5.17115 122.147 4.93035C122.327 4.68955 122.538 4.47283 122.779 4.28019C123.031 4.07552 123.308 3.91298 123.609 3.79258C123.91 3.67218 124.217 3.61198 124.53 3.61198C124.771 3.61198 124.934 3.618 125.018 3.63004C125.114 3.64208 125.211 3.65412 125.307 3.66616V5.65275C125.163 5.62867 125.012 5.61061 124.856 5.59857C124.711 5.57449 124.567 5.56245 124.422 5.56245C124.073 5.56245 123.742 5.63469 123.429 5.77917C123.128 5.9116 122.863 6.11628 122.634 6.3932C122.405 6.65808 122.225 6.98918 122.092 7.3865C121.96 7.78381 121.894 8.24133 121.894 8.75905V13.2018H119.835V3.86482Z" fill="#323232"/>
<path d="M125.245 3.86482H126.798V1.06553H128.857V3.86482H130.717V5.39991H128.857V10.3844C128.857 10.6012 128.863 10.7878 128.875 10.9443C128.899 11.1008 128.941 11.2333 129.001 11.3416C129.074 11.45 129.176 11.5343 129.308 11.5945C129.441 11.6426 129.621 11.6667 129.85 11.6667C129.995 11.6667 130.139 11.6667 130.284 11.6667C130.428 11.6546 130.573 11.6306 130.717 11.5945V13.1837C130.488 13.2078 130.266 13.2319 130.049 13.256C129.832 13.28 129.609 13.2921 129.381 13.2921C128.839 13.2921 128.399 13.2439 128.062 13.1476C127.737 13.0392 127.478 12.8887 127.286 12.6961C127.105 12.4914 126.979 12.2386 126.906 11.9376C126.846 11.6366 126.81 11.2935 126.798 10.9082V5.39991H125.245V3.86482Z" fill="#323232"/>
<path d="M133.751 10.2038C133.811 10.8058 134.04 11.2272 134.438 11.468C134.835 11.7088 135.31 11.8292 135.864 11.8292C136.057 11.8292 136.274 11.8172 136.514 11.7931C136.767 11.757 137.002 11.6968 137.219 11.6125C137.436 11.5282 137.61 11.4078 137.743 11.2513C137.887 11.0828 137.953 10.866 137.941 10.6012C137.929 10.3363 137.833 10.1196 137.652 9.951C137.472 9.78244 137.237 9.65 136.948 9.55368C136.671 9.44532 136.352 9.35502 135.991 9.28278C135.63 9.21054 135.262 9.13229 134.889 9.04801C134.504 8.96373 134.131 8.86139 133.769 8.74099C133.42 8.62059 133.101 8.45805 132.812 8.25337C132.535 8.04869 132.312 7.78983 132.144 7.4768C131.975 7.15172 131.891 6.7544 131.891 6.28484C131.891 5.77916 132.012 5.35777 132.252 5.02065C132.505 4.67149 132.818 4.39457 133.191 4.18989C133.577 3.97318 133.998 3.82268 134.456 3.7384C134.925 3.65412 135.371 3.61198 135.792 3.61198C136.274 3.61198 136.731 3.66616 137.165 3.77452C137.61 3.87084 138.007 4.03338 138.357 4.26213C138.718 4.49089 139.013 4.79189 139.241 5.16513C139.482 5.52633 139.633 5.96578 139.693 6.4835H137.544C137.448 5.98986 137.219 5.65877 136.858 5.49021C136.508 5.32165 136.105 5.23737 135.648 5.23737C135.503 5.23737 135.329 5.24941 135.124 5.27349C134.931 5.29757 134.745 5.34573 134.564 5.41797C134.395 5.47817 134.251 5.57449 134.131 5.70693C134.01 5.82732 133.95 5.98986 133.95 6.19454C133.95 6.44738 134.034 6.65206 134.203 6.80858C134.383 6.9651 134.612 7.09754 134.889 7.2059C135.178 7.30222 135.503 7.3865 135.864 7.45873C136.225 7.53097 136.599 7.60923 136.984 7.69351C137.357 7.77779 137.724 7.88013 138.086 8.00053C138.447 8.12093 138.766 8.28347 139.043 8.48815C139.332 8.69283 139.561 8.95169 139.729 9.26472C139.91 9.57776 140 9.96304 140 10.4206C140 10.9744 139.874 11.444 139.621 11.8292C139.368 12.2145 139.037 12.5275 138.627 12.7683C138.23 13.0091 137.785 13.1837 137.291 13.2921C136.797 13.4004 136.31 13.4546 135.828 13.4546C135.238 13.4546 134.69 13.3884 134.185 13.256C133.691 13.1235 133.258 12.9249 132.884 12.66C132.523 12.3831 132.234 12.0459 132.018 11.6486C131.813 11.2393 131.704 10.7577 131.692 10.2038H133.751Z" fill="#323232"/>
<path d="M3.3276 29.015C5.16539 29.015 6.65521 27.5252 6.65521 25.6874C6.65521 23.8496 5.16539 22.3598 3.3276 22.3598C1.48982 22.3598 0 23.8496 0 25.6874C0 27.5252 1.48982 29.015 3.3276 29.015Z" fill="#6F6FF9"/>
<path d="M16.3425 29.0151C18.1803 29.0151 19.6701 27.5252 19.6701 25.6874C19.6701 23.8497 18.1803 22.3599 16.3425 22.3599C14.5047 22.3599 13.0149 23.8497 13.0149 25.6874C13.0149 27.5252 14.5047 29.0151 16.3425 29.0151Z" fill="#FF75C7"/>
<path d="M29.3496 29.0151C31.1874 29.0151 32.6772 27.5252 32.6772 25.6874C32.6772 23.8497 31.1874 22.3599 29.3496 22.3599C27.5118 22.3599 26.022 23.8497 26.022 25.6874C26.022 27.5252 27.5118 29.0151 29.3496 29.0151Z" fill="#FF9019"/>
</svg>
